<svg xmlns="http://www.w3.org/2000/svg" width="25.036" height="21.248" viewBox="0 0 25.036 21.248"><defs><style>.a{fill:#264952;}</style></defs><g transform="translate(-1 -5.8)"><g transform="translate(1 5.8)"><path class="a" d="M4.32,23.244v6.523H5.726V23.244H8.343L6.585,21.291H8.3A2.264,2.264,0,0,1,7.21,19.807l-.742-.859h.7a4.8,4.8,0,0,1,.312-1.484L6.39,16.253H8.03c.156-.273.312-.508.43-.7l-3.4-3.75L1,16.253H3.7L1.234,18.987H3.578L1.469,21.33H3.461L1.7,23.283H4.32Z" transform="translate(-1 -9.457)"/><path class="a" d="M39.156,21.7,39,23.731a3.1,3.1,0,0,0,2.812-.039V23.3c-.039-.664.469-1.211.508-1.484a3.687,3.687,0,0,0-.547-.039C41.07,22.637,39.7,22.872,39.156,21.7Z" transform="translate(-24.158 -15.49)"/><path class="a" d="M51.531,18.4a.2.2,0,0,0-.156-.078H47.664a1.271,1.271,0,0,0-.508-.117s-.117.273-.156.391v.7h.039c.117,0,.469.039.508.234a1.1,1.1,0,0,1-.273.742,2.705,2.705,0,0,0-.273.859v.742h.156v.156s1.016.117,1.055-.156c0,0,.156-.039.039-.156a.682.682,0,0,1,.117-.547,1.055,1.055,0,0,1,.117-.469s-.039-.469.273-.469a1.633,1.633,0,0,0,1.289-.078v-.547s0-.117.273-.117h1.133s.039-.117-.039-.117A2.293,2.293,0,0,0,51.531,18.4ZM48.758,19.88c-.039-.234.117-.312.2-.312a.038.038,0,0,1,.039.039c.039.078.078.078.078.078a.649.649,0,0,0,.2.469C48.758,20.153,48.758,19.88,48.758,19.88Zm1.211,0a.214.214,0,0,1-.2.2h-.391s0-.039.078-.039a.745.745,0,0,1-.156-.391l.039-.2c0-.039.039-.039.078-.039h.43a.2.2,0,0,1,.117.2Z" transform="translate(-29.033 -13.357)"/><path class="a" d="M19.426,31.007a1.17,1.17,0,1,0-1.016,2.109c2.07.937,2.148,1.094,2.578,1.094a1.175,1.175,0,0,0,1.172-1.172V28.976H22.2l3.632.312v3.828a1.172,1.172,0,0,0,2.343,0V28.234a1.214,1.214,0,0,0-1.055-1.172L25.4,26.906l-.352-.039h0v-.117h0V26.71c.039-.43.2-2.109.7-7.812-2.383-2.031-5.976-1.211-6.835.2a7.6,7.6,0,0,0-1.328,3.359c-.156,2.7,2.7,2.7,5.429,1.836a.778.778,0,0,0-.469-1.484,5.887,5.887,0,0,1-3.086.391.452.452,0,0,1-.352-.391,2.9,2.9,0,0,1,.2-1.172l.117,1.172a6.59,6.59,0,0,0,3.007-.352,1.162,1.162,0,1,1,.664,2.226,9.508,9.508,0,0,1-3.476.508l.2,2.031h0c-.039.2,0,0-.039,3.906Z" transform="translate(-11.107 -13.04)"/><path class="a" d="M26.626,5.8A2.251,2.251,0,0,0,24.4,8.026a2.226,2.226,0,0,0,4.453,0A2.2,2.2,0,0,0,26.626,5.8Z" transform="translate(-15.26 -5.8)"/><path class="a" d="M60.593,17.82l.43-.7-.781.234L59.578,17l.039.82h-.742c.039.039.391.7.391.664-.039.039-.508.547-.469.508.039,0,.82.156.781.156l.469.625.234-.742.742.2L60.71,18.6l.547-.391Zm.039,1.055-.508-.117-.156.547-.273-.391-.508-.117.352-.352-.273-.508h.586l-.039-.625.391.234.391-.117-.273.43.508.312-.391.312Z" transform="translate(-36.221 -12.625)"/></g></g></svg>