<svg xmlns="http://www.w3.org/2000/svg" width="17" height="13" viewBox="0 0 17 13"><defs><style>.a{fill:#264952;}</style></defs><path class="a" d="M11.05,13.167h1.275a.462.462,0,0,0,.425-.433V8.183a.462.462,0,0,0-.425-.433H11.05a.462.462,0,0,0-.425.433v4.55a.462.462,0,0,0,.425.433Zm3.188,0h1.275a.462.462,0,0,0,.425-.433v-7.8a.462.462,0,0,0-.425-.433H14.237a.462.462,0,0,0-.425.433v7.8a.462.462,0,0,0,.425.433Zm-9.562,0H5.95a.462.462,0,0,0,.425-.433V10.35a.462.462,0,0,0-.425-.433H4.675a.462.462,0,0,0-.425.433v2.383a.462.462,0,0,0,.425.433Zm3.188,0H9.137a.462.462,0,0,0,.425-.433V6.017a.462.462,0,0,0-.425-.433H7.862a.462.462,0,0,0-.425.433v6.717A.462.462,0,0,0,7.862,13.167Zm8.606,2.167H2.125V5.042A.536.536,0,0,0,1.594,4.5H.531A.536.536,0,0,0,0,5.042V16.417A1.073,1.073,0,0,0,1.063,17.5H16.469A.536.536,0,0,0,17,16.958V15.875A.536.536,0,0,0,16.469,15.333Z" transform="translate(0 -4.5)"/></svg>