<svg xmlns="http://www.w3.org/2000/svg" width="16" height="16" viewBox="0 0 16 16"><defs><style>.a{fill:none;}.b{fill:#4383c2;opacity:0.3;}</style></defs><path class="a" d="M0,0H16V16H0Z"/><path class="b" d="M10.329,4A3.334,3.334,0,0,0,7,7.336c0,1.9,1.944,4.811,3.329,6.592,1.4-1.795,3.329-4.67,3.329-6.592A3.334,3.334,0,0,0,10.329,4Zm0,5a1.668,1.668,0,1,1,1.664-1.668A1.667,1.667,0,0,1,10.329,9Z" transform="translate(-2.329 -1.337)"/><path d="M9.671,2A4.666,4.666,0,0,0,5,6.668c0,3.5,4.671,8.669,4.671,8.669s4.671-5.168,4.671-8.669A4.666,4.666,0,0,0,9.671,2ZM6.335,6.668a3.336,3.336,0,0,1,6.673,0c0,1.921-1.922,4.795-3.336,6.588C8.283,11.476,6.335,8.568,6.335,6.668Z" transform="translate(-1.671 -0.668)"/><circle cx="1.664" cy="1.664" r="1.664" transform="translate(6.336 4.335)"/></svg>