<svg xmlns="http://www.w3.org/2000/svg" width="28" height="28" viewBox="0 0 28 28"><defs><style>.a{fill:none;}.b{fill:#264952;}</style></defs><g transform="translate(-324 -360)"><rect class="a" width="28" height="28" transform="translate(324 360)"/><path class="b" d="M-1087.024,209.386c-.285-.334-6.976-8.225-6.976-12.086a7.411,7.411,0,0,1,7.5-7.3,7.411,7.411,0,0,1,7.5,7.3c0,3.861-6.692,11.752-6.976,12.086l-.524.614Zm-5.615-12.086c0,2.574,4.037,8.041,6.138,10.611,2.1-2.57,6.139-8.038,6.139-10.611a6.065,6.065,0,0,0-6.139-5.975A6.065,6.065,0,0,0-1092.639,197.3Zm2.041-.417a4.049,4.049,0,0,1,4.1-3.989,4.048,4.048,0,0,1,4.1,3.989,4.049,4.049,0,0,1-4.1,3.989A4.049,4.049,0,0,1-1090.6,196.884Zm1.361,0a2.7,2.7,0,0,0,2.736,2.664,2.7,2.7,0,0,0,2.736-2.664,2.7,2.7,0,0,0-2.736-2.663A2.7,2.7,0,0,0-1089.237,196.884Z" transform="translate(1424.5 173.996)"/></g></svg>