<svg xmlns="http://www.w3.org/2000/svg" width="28" height="28" viewBox="0 0 28 28"><defs><style>.a{fill:none;}.b{fill:#264952;}</style></defs><g transform="translate(-324 -360)"><rect class="a" width="28" height="28" transform="translate(324 360)"/><g transform="translate(311.308 341.327)"><g transform="translate(18.692 24.673)"><path class="b" d="M21.7,24.673H19.017a.325.325,0,0,0-.325.325v2.688a.337.337,0,0,0,.325.325H21.7a.337.337,0,0,0,.325-.325V25A.337.337,0,0,0,21.7,24.673Z" transform="translate(-18.692 -24.673)"/><path class="b" d="M21.7,301.308H19.017a.337.337,0,0,0-.325.325v2.688a.337.337,0,0,0,.325.325H21.7a.337.337,0,0,0,.325-.325v-2.688A.325.325,0,0,0,21.7,301.308Z" transform="translate(-18.692 -294.969)"/><path class="b" d="M21.7,577.2H19.017a.337.337,0,0,0-.325.325v2.688a.337.337,0,0,0,.325.325H21.7a.337.337,0,0,0,.325-.325v-2.688A.337.337,0,0,0,21.7,577.2Z" transform="translate(-18.692 -564.535)"/><path class="b" d="M304.3,24.673h-2.671a.325.325,0,0,0-.325.325v2.688a.337.337,0,0,0,.325.325h2.688a.337.337,0,0,0,.325-.325V25A.353.353,0,0,0,304.3,24.673Z" transform="translate(-294.969 -24.673)"/><path class="b" d="M304.3,301.308h-2.671a.337.337,0,0,0-.325.325v2.688a.337.337,0,0,0,.325.325h2.688a.337.337,0,0,0,.325-.325v-2.688A.34.34,0,0,0,304.3,301.308Z" transform="translate(-294.969 -294.969)"/><path class="b" d="M304.3,577.2h-2.671a.337.337,0,0,0-.325.325v2.688a.337.337,0,0,0,.325.325h2.688a.337.337,0,0,0,.325-.325v-2.688A.353.353,0,0,0,304.3,577.2Z" transform="translate(-294.969 -564.535)"/><path class="b" d="M586.191,24.673H583.5a.325.325,0,0,0-.325.325v2.688a.337.337,0,0,0,.325.325h2.688a.337.337,0,0,0,.325-.325V25A.337.337,0,0,0,586.191,24.673Z" transform="translate(-570.516 -24.673)"/><path class="b" d="M586.191,301.308H583.5a.337.337,0,0,0-.325.325v2.688a.337.337,0,0,0,.325.325h2.688a.337.337,0,0,0,.325-.325v-2.688A.325.325,0,0,0,586.191,301.308Z" transform="translate(-570.516 -294.969)"/><path class="b" d="M586.191,577.2H583.5a.337.337,0,0,0-.325.325v2.688a.337.337,0,0,0,.325.325h2.688a.337.337,0,0,0,.325-.325v-2.688A.337.337,0,0,0,586.191,577.2Z" transform="translate(-570.516 -564.535)"/></g></g></g></svg>