<svg xmlns="http://www.w3.org/2000/svg" width="16" height="16" viewBox="0 0 16 16"><defs><style>.a{fill:#264952;}</style></defs><path class="a" d="M18.9,4.5H6.1A1.606,1.606,0,0,0,4.5,6.1V18.9a1.606,1.606,0,0,0,1.6,1.6H18.9a1.606,1.606,0,0,0,1.6-1.6V6.1A1.606,1.606,0,0,0,18.9,4.5ZM9.3,18.9H6.1V15.7H9.3Zm0-4.8H6.1V10.9H9.3Zm0-4.8H6.1V6.1H9.3Zm4.8,9.6H10.9V15.7h3.2Zm0-4.8H10.9V10.9h3.2Zm0-4.8H10.9V6.1h3.2Zm4.8,9.6H15.7V15.7h3.2Zm0-4.8H15.7V10.9h3.2Zm0-4.8H15.7V6.1h3.2Z" transform="translate(-4.5 -4.5)"/></svg>