<svg xmlns="http://www.w3.org/2000/svg" width="16.6" height="16.6" viewBox="0 0 16.6 16.6"><defs><style>.a{fill:#264952;stroke:#264952;stroke-width:0.6px;}</style></defs><g transform="translate(-5.7 -5.7)"><g transform="translate(6 6)"><path class="a" d="M6.348,22h15.3A.348.348,0,0,0,22,21.652V6.348A.348.348,0,0,0,21.652,6H6.348A.348.348,0,0,0,6,6.348v15.3A.348.348,0,0,0,6.348,22Zm7.3-15.3v.522a.348.348,0,1,0,.7,0V6.7H21.3v6.957h-.522a.348.348,0,1,0,0,.7H21.3V21.3H14.348v-.522a.348.348,0,1,0-.7,0V21.3H6.7V14.348h.522a.348.348,0,1,0,0-.7H6.7V6.7Z" transform="translate(-6 -6)"/><path class="a" d="M48.3,19.251a.217.217,0,0,0,.217-.217v-.695a.217.217,0,0,0-.435,0v.695a.217.217,0,0,0,.217.217Z" transform="translate(-40.304 -16.744)"/><path class="a" d="M48.3,32.7a.217.217,0,0,0,.217-.217v-.695a.217.217,0,0,0-.435,0v.695a.217.217,0,0,0,.217.217Z" transform="translate(-40.304 -26.703)"/><path class="a" d="M48.3,58.484a.217.217,0,0,0-.217.217V59.4a.217.217,0,0,0,.435,0V58.7a.217.217,0,0,0-.217-.217Z" transform="translate(-40.304 -48.485)"/><path class="a" d="M48.3,71.937a.217.217,0,0,0-.217.217v.695a.217.217,0,1,0,.435,0v-.695a.217.217,0,0,0-.217-.217Z" transform="translate(-40.304 -58.445)"/><path class="a" d="M72.155,48.522h.695a.217.217,0,0,0,0-.435h-.695a.217.217,0,1,0,0,.435Z" transform="translate(-58.445 -40.304)"/><path class="a" d="M58.7,48.522H59.4a.217.217,0,0,0,0-.435H58.7a.217.217,0,1,0,0,.435Z" transform="translate(-48.485 -40.304)"/><path class="a" d="M31.793,48.522h.695a.217.217,0,0,0,0-.435h-.695a.217.217,0,0,0,0,.435Z" transform="translate(-26.703 -40.304)"/><path class="a" d="M18.339,48.522h.695a.217.217,0,0,0,0-.435h-.695a.217.217,0,0,0,0,.435Z" transform="translate(-16.744 -40.304)"/><path class="a" d="M45.247,45.812h.13v.13a.217.217,0,1,0,.435,0v-.13h.13a.217.217,0,1,0,0-.435h-.13v-.13a.217.217,0,1,0-.435,0v.13h-.13a.217.217,0,1,0,0,.435Z" transform="translate(-37.594 -37.594)"/></g></g></svg>