<svg xmlns="http://www.w3.org/2000/svg" width="28" height="28" viewBox="0 0 28 28"><defs><style>.a{fill:none;}.b{fill:#22445a;}</style></defs><g transform="translate(-328 -360)"><rect class="a" width="28" height="28" transform="translate(328 360)"/><path class="b" d="M.9,22a.9.9,0,0,1-.891-1.06A.92.92,0,0,1,0,20.782V.916a.917.917,0,0,1,1.833,0V20.191H21.1A.9.9,0,1,1,21.1,22Zm2.218-4.68,5.871-6.661,3.326,2.851,3.353-3.8-2.8-2.4,7.34-1.127-.111,7.324-2.8-2.4-4.776,5.419L9.207,13.676,4.759,18.723Z" transform="translate(331 363)"/></g></svg>