<svg xmlns="http://www.w3.org/2000/svg" width="24" height="24" viewBox="0 0 24 24"><defs><style>.a{fill:#4383c2;}</style></defs><path class="a" d="M-1386.671-2.943a11.963,11.963,0,0,1-3.815-2.571,11.968,11.968,0,0,1-2.571-3.814A11.932,11.932,0,0,1-1394-14a11.923,11.923,0,0,1,.943-4.67,11.962,11.962,0,0,1,2.571-3.815,11.977,11.977,0,0,1,3.815-2.571A11.926,11.926,0,0,1-1382-26a11.932,11.932,0,0,1,4.672.943,11.986,11.986,0,0,1,3.814,2.571,11.98,11.98,0,0,1,2.571,3.815A11.926,11.926,0,0,1-1370-14a11.932,11.932,0,0,1-.943,4.672,11.986,11.986,0,0,1-2.571,3.814,11.971,11.971,0,0,1-3.814,2.571A11.932,11.932,0,0,1-1382-2,11.926,11.926,0,0,1-1386.671-2.943Zm-2.475-18.2a10.038,10.038,0,0,0-2.96,7.145,10.038,10.038,0,0,0,2.96,7.146A10.038,10.038,0,0,0-1382-3.894a10.037,10.037,0,0,0,7.146-2.96,10.037,10.037,0,0,0,2.96-7.146,10.038,10.038,0,0,0-2.96-7.145,10.037,10.037,0,0,0-7.146-2.96A10.038,10.038,0,0,0-1389.146-21.146ZM-1382.429-8a.857.857,0,0,1-.857-.857v-3.857h-3.857a.857.857,0,0,1-.857-.857v-.858a.857.857,0,0,1,.857-.857h3.857v-3.857a.857.857,0,0,1,.857-.857h.858a.857.857,0,0,1,.857.857v3.857h3.857a.857.857,0,0,1,.857.857v.858a.857.857,0,0,1-.857.857h-3.857v3.857a.857.857,0,0,1-.857.857Z" transform="translate(1394 26)"/></svg>