<svg xmlns="http://www.w3.org/2000/svg" width="28" height="28" viewBox="0 0 28 28"><defs><style>.a{fill:none;}.b{fill:#22445a;}</style></defs><g transform="translate(-324 -360)"><rect class="a" width="28" height="28" transform="translate(324 360)"/><path class="b" d="M23.635,16.936l-4.962-4.96a7.549,7.549,0,0,0,.154-1.54A8.42,8.42,0,0,0,6.852,2.792a1.1,1.1,0,0,0-.318,1.782l4.775,4.774-1.976,1.98L4.568,6.542a1.113,1.113,0,0,0-1.778.319,8.435,8.435,0,0,0,7.684,12,7.5,7.5,0,0,0,1.537-.154l4.951,4.971a1.1,1.1,0,1,0,1.559-1.562l-5.379-5.389a1.1,1.1,0,0,0-1.043-.286,6.442,6.442,0,0,1-1.625.22A6.23,6.23,0,0,1,4.2,10.436a6.612,6.612,0,0,1,.088-1.1l4.3,4.323a1.1,1.1,0,0,0,1.559,0l3.491-3.531a1.1,1.1,0,0,0,0-1.529L9.365,4.288a6.7,6.7,0,0,1,1.1-.088,6.23,6.23,0,0,1,6.213,6.236,6.48,6.48,0,0,1-.22,1.628,1.1,1.1,0,0,0,.285,1.045L22.12,18.5a1.1,1.1,0,0,0,1.559-1.562Z" transform="translate(324.998 360.998)"/></g></svg>