<svg xmlns="http://www.w3.org/2000/svg" width="16" height="16" viewBox="0 0 16 16"><defs><style>.a{fill:none;}.b{fill:#4383c2;opacity:0.3;}</style></defs><path class="a" d="M0,0H16V16H0Z"/><path class="b" d="M9.308,4a5.308,5.308,0,1,0,5.308,5.308A5.307,5.307,0,0,0,9.308,4Zm2.82,8.062L8.645,9.972V5.991h1V9.474l2.986,1.772Z" transform="translate(-1.308 -1.308)"/><path d="M8.57,2a6.576,6.576,0,1,0,6.583,6.576A6.573,6.573,0,0,0,8.57,2Zm.007,11.837a5.261,5.261,0,1,1,5.261-5.261A5.26,5.26,0,0,1,8.576,13.837Zm.329-8.549H7.919V9.234l3.453,2.072.493-.809L8.905,8.741Z" transform="translate(-0.576 -0.576)"/></svg>