<svg xmlns="http://www.w3.org/2000/svg" width="24" height="24" viewBox="0 0 24 24"><defs><style>.a{fill:none;}.b{fill:#264952;}.c{fill:#ec4b4b;stroke:#fff;}.d{stroke:none;}</style></defs><g transform="translate(-298 390)"><rect class="a" width="24" height="24" transform="translate(298 -390)"/><path class="b" d="M12.974,20.75a1.749,1.749,0,0,0,1.744-1.744H11.231A1.743,1.743,0,0,0,12.974,20.75Zm5.231-5.231V11.16c0-2.676-1.43-4.917-3.923-5.51V5.058a1.308,1.308,0,1,0-2.615,0v.593c-2.5.593-3.923,2.825-3.923,5.51v4.359L6,17.263v.872H19.949v-.872Z" transform="translate(297 -390.75)"/><g class="c" transform="translate(311 -387)"><circle class="d" cx="5" cy="5" r="5"/><circle class="a" cx="5" cy="5" r="4.5"/></g></g></svg>