<svg xmlns="http://www.w3.org/2000/svg" width="24" height="24" viewBox="0 0 24 24"><defs><style>.a{fill:none;}.b{fill:#264952;}.c{fill:#ec4b4b;stroke:#fff;}.d{stroke:none;}</style></defs><g transform="translate(-298 390)"><rect class="a" width="24" height="24" transform="translate(298 -390)"/><path class="b" d="M17.4,3H4.6A1.6,1.6,0,0,0,3.008,4.6L3,19l3.2-3.2H17.4A1.6,1.6,0,0,0,19,14.2V4.6A1.6,1.6,0,0,0,17.4,3Zm-1.6,9.6H6.2V11h9.6Zm0-2.4H6.2V8.6h9.6Zm0-2.4H6.2V6.2h9.6Z" transform="translate(299 -389)"/><g class="c" transform="translate(312 -387)"><circle class="d" cx="5" cy="5" r="5"/><circle class="a" cx="5" cy="5" r="4.5"/></g></g></svg>